<svg width="256" height="256" viewBox="0 0 256 256" fill="none" xmlns="http://www.w3.org/2000/svg">
  <defs>
    <linearGradient id="bg" x1="0" y1="0" x2="256" y2="256" gradientUnits="userSpaceOnUse">
      <stop offset="0" stop-color="#1b1340"/>
      <stop offset="0.55" stop-color="#120f24"/>
      <stop offset="1" stop-color="#0a0914"/>
    </linearGradient>
    <radialGradient id="glow" cx="0.5" cy="0.42" r="0.6">
      <stop offset="0" stop-color="#7c3aed" stop-opacity="0.55"/>
      <stop offset="1" stop-color="#7c3aed" stop-opacity="0"/>
    </radialGradient>
    <linearGradient id="spark" x1="128" y1="38" x2="128" y2="198" gradientUnits="userSpaceOnUse">
      <stop offset="0" stop-color="#f5ecff"/>
      <stop offset="0.5" stop-color="#c2a6e2"/>
      <stop offset="1" stop-color="#a78bfa"/>
    </linearGradient>
    <filter id="soft" x="-50%" y="-50%" width="200%" height="200%">
      <feGaussianBlur stdDeviation="6" result="b"/>
      <feMerge>
        <feMergeNode in="b"/>
        <feMergeNode in="SourceGraphic"/>
      </feMerge>
    </filter>
  </defs>

  <rect x="0" y="0" width="256" height="256" rx="56" fill="url(#bg)"/>
  <rect x="0" y="0" width="256" height="256" rx="56" fill="url(#glow)"/>

  <circle cx="62" cy="64" r="2.4" fill="#e0def4" opacity="0.85"/>
  <circle cx="196" cy="58" r="3" fill="#c2a6e2" opacity="0.9"/>
  <circle cx="208" cy="160" r="2" fill="#e0def4" opacity="0.7"/>
  <circle cx="54" cy="186" r="2.6" fill="#a78bfa" opacity="0.8"/>
  <circle cx="150" cy="206" r="1.8" fill="#e0def4" opacity="0.6"/>

  <path d="M188 76 q3.4 9.6 13 13 q-9.6 3.4 -13 13 q-3.4 -9.6 -13 -13 q9.6 -3.4 13 -13 Z" fill="#22d3ee" opacity="0.9"/>

  <g filter="url(#soft)">
    <path d="M128 38 Q140.7 105.3 208 118 Q140.7 130.7 128 198 Q115.3 130.7 48 118 Q115.3 105.3 128 38 Z" fill="url(#spark)"/>
  </g>
</svg>
